<?xml version="1.0" encoding="utf-8"?>
<!-- Generator: Adobe Illustrator 19.2.1, SVG Export Plug-In . SVG Version: 6.00 Build 0)  -->
<svg version="1.1" id="Glyph" xmlns="http://www.w3.org/2000/svg" xmlns:xlink="http://www.w3.org/1999/xlink" x="0px" y="0px"
	 viewBox="0 0 32 32" enable-background="new 0 0 32 32" xml:space="preserve">
<path d="M29.979,18.383C30.331,23.623,26.167,28,21,28h-4c-1.105,0-2-0.895-2-2v0c0-1.105,0.895-2,2-2h4
	c2.922,0,5.267-2.52,4.976-5.5c-0.254-2.597-2.589-4.5-5.199-4.5L11,14v5.286c0,0.633-0.765,0.949-1.212,0.502L2,12l7.788-7.788
	C10.235,3.765,11,4.082,11,4.714V10l9.682,0C25.471,10,29.659,13.605,29.979,18.383z"/>
</svg>
