<?xml version="1.0" encoding="iso-8859-1"?>
<!-- Generator: Adobe Illustrator 23.0.5, SVG Export Plug-In . SVG Version: 6.00 Build 0)  -->
<svg version="1.1" xmlns="http://www.w3.org/2000/svg" xmlns:xlink="http://www.w3.org/1999/xlink" x="0px" y="0px"
	 viewBox="0 0 512 512" style="enable-background:new 0 0 512 512;" xml:space="preserve">
<g id="_x34_7_Save">
	<g>
		<path d="M393.48,14.222C386.283,7.018,376.706,3.05,366.514,3.05h-56.718H96.704H67.832c-21.03,0-38.139,17.109-38.139,38.139
			v429.623c0,21.03,17.109,38.139,38.139,38.139h51.163h274.011h51.163c21.03,0,38.139-17.109,38.139-38.139V118.843
			c0-10.184-3.968-19.762-11.172-26.966L393.48,14.222z M303.821,15v107.414c0,8.527-6.94,15.467-15.467,15.467H118.146
			c-8.527,0-15.467-6.94-15.467-15.467V15H303.821z M124.97,497V343.107c0-20.353,16.556-36.909,36.909-36.909h188.242
			c20.353,0,36.909,16.556,36.909,36.909V497H124.97z M470.356,470.812c0,14.44-11.748,26.188-26.188,26.188h-45.187V343.107
			c0-26.943-21.917-48.86-48.86-48.86H161.879c-26.943,0-48.86,21.917-48.86,48.86V497H67.832c-14.44,0-26.188-11.748-26.188-26.188
			V41.188C41.644,26.748,53.392,15,67.832,15h22.897v107.414c0,15.117,12.301,27.417,27.417,27.417h170.208
			c15.117,0,27.417-12.301,27.417-27.417V15h50.743c7.002,0,13.576,2.723,18.517,7.671l77.654,77.654
			c4.948,4.948,7.671,11.522,7.671,18.517V470.812z"/>
		<path d="M241.097,111.599c11.507,0,20.874-9.367,20.874-20.874V51.801c0-11.507-9.367-20.874-20.874-20.874
			c-11.515,0-20.882,9.367-20.882,20.874v38.924C220.215,102.232,229.582,111.599,241.097,111.599z M232.165,51.801
			c0-4.917,4.007-8.924,8.932-8.924c4.917,0,8.924,4.007,8.924,8.924v38.924c0,4.917-4.007,8.924-8.924,8.924
			c-4.925,0-8.932-4.007-8.932-8.924V51.801z"/>
		<path d="M339.112,349.938H172.888c-3.299,0-5.975,2.676-5.975,5.975c0,3.299,2.676,5.975,5.975,5.975h166.224
			c3.299,0,5.975-2.676,5.975-5.975C345.087,352.615,342.411,349.938,339.112,349.938z"/>
		<path d="M339.112,395.624H172.888c-3.299,0-5.975,2.676-5.975,5.975c0,3.299,2.676,5.975,5.975,5.975h166.224
			c3.299,0,5.975-2.676,5.975-5.975C345.087,398.3,342.411,395.624,339.112,395.624z"/>
		<path d="M339.112,441.301H172.888c-3.299,0-5.975,2.676-5.975,5.975c0,3.299,2.676,5.975,5.975,5.975h166.224
			c3.299,0,5.975-2.676,5.975-5.975C345.087,443.978,342.411,441.301,339.112,441.301z"/>
	</g>
</g>
<g id="Layer_1">
</g>
</svg>
