<svg id="Line" xmlns="http://www.w3.org/2000/svg" viewBox="0 0 64 64"><defs><style>.cls-1{fill:#231f20;}</style></defs><title>1</title><path class="cls-1" d="M52.61621,4H11.38379a5.00588,5.00588,0,0,0-5,5V55a5.00588,5.00588,0,0,0,5,5H52.61621a5.00588,5.00588,0,0,0,5-5V9A5.00588,5.00588,0,0,0,52.61621,4ZM19.64014,6H44.36035v5a2.0026,2.0026,0,0,1-2,2H21.64014a2.00229,2.00229,0,0,1-2-2ZM48.65625,58H15.34375V40a3.00328,3.00328,0,0,1,3-3h27.3125a3.00328,3.00328,0,0,1,3,3Zm6.96-3a3.00328,3.00328,0,0,1-3,3h-1.96V40a5.00588,5.00588,0,0,0-5-5H18.34375a5.00588,5.00588,0,0,0-5,5V58h-1.96a3.00328,3.00328,0,0,1-3-3V9a3.00328,3.00328,0,0,1,3-3h6.25635v5a4.00427,4.00427,0,0,0,4,4H42.36035a4.004,4.004,0,0,0,4-4V6h6.25586a3.00328,3.00328,0,0,1,3,3Z"/></svg>